<svg width="600" height="600" viewBox="0 0 600 600" fill="none" xmlns="http://www.w3.org/2000/svg">
<path d="M86 434C86 380.428 129.428 337 183 337H417C470.572 337 514 380.428 514 434C514 487.572 470.572 531 417 531H183C129.428 531 86 487.572 86 434Z" fill="#F8DB46"/>
<path fill-rule="evenodd" clip-rule="evenodd" d="M81 434C81 377.667 126.667 332 183 332H417C473.333 332 519 377.667 519 434C519 490.333 473.333 536 417 536H183C126.667 536 81 490.333 81 434ZM183 342C132.19 342 91 383.19 91 434C91 484.81 132.19 526 183 526H417C467.81 526 509 484.81 509 434C509 383.19 467.81 342 417 342H183Z" fill="#05060F"/>
<path d="M349 434C349 396.67 379.445 366 417 366C454.555 366 485 396.67 485 434C485 471.33 454.555 502 417 502C379.445 502 349 471.33 349 434Z" fill="white"/>
<path fill-rule="evenodd" clip-rule="evenodd" d="M344 434C344 393.919 376.672 361 417 361C457.328 361 490 393.919 490 434C490 474.081 457.328 507 417 507C376.672 507 344 474.081 344 434ZM417 371C382.217 371 354 399.42 354 434C354 468.58 382.217 497 417 497C451.783 497 480 468.58 480 434C480 399.42 451.783 371 417 371Z" fill="#05060F"/>
<path d="M318 96C318 80.536 330.536 68 346 68H486C501.464 68 514 80.536 514 96V236C514 251.464 501.464 264 486 264H346C330.536 264 318 251.464 318 236V96Z" fill="white"/>
<path fill-rule="evenodd" clip-rule="evenodd" d="M486 78H346C336.059 78 328 86.0589 328 96V236C328 245.941 336.059 254 346 254H486C495.941 254 504 245.941 504 236V96C504 86.0589 495.941 78 486 78ZM346 68C330.536 68 318 80.536 318 96V236C318 251.464 330.536 264 346 264H486C501.464 264 514 251.464 514 236V96C514 80.536 501.464 68 486 68H346Z" fill="#05060F"/>
<path d="M84 166.5C84 109.891 129.891 64 186.5 64C243.109 64 289 109.891 289 166.5C289 223.109 243.109 269 186.5 269C129.891 269 84 223.109 84 166.5Z" fill="white"/>
<path fill-rule="evenodd" clip-rule="evenodd" d="M94 166.5C94 217.586 135.414 259 186.5 259C237.586 259 279 217.586 279 166.5C279 115.414 237.586 74 186.5 74C135.414 74 94 115.414 94 166.5ZM186.5 64C129.891 64 84 109.891 84 166.5C84 223.109 129.891 269 186.5 269C243.109 269 289 223.109 289 166.5C289 109.891 243.109 64 186.5 64Z" fill="#05060F"/>
<rect x="121" y="102" width="131" height="130" rx="65" fill="#2187FF"/>
<path fill-rule="evenodd" clip-rule="evenodd" d="M467.531 131.53C471.15 135.322 471.011 141.33 467.219 144.949L405.802 203.574C403.952 205.34 401.468 206.285 398.912 206.194C396.356 206.104 393.945 204.986 392.225 203.093L364.308 172.385C360.782 168.506 361.068 162.503 364.947 158.977C368.826 155.451 374.829 155.737 378.355 159.615L399.729 183.127L454.111 131.218C457.903 127.598 463.911 127.738 467.531 131.53Z" fill="#05060F"/>
</svg>
